<svg width="20" height="20" viewBox="0 0 20 20" fill="none" xmlns="http://www.w3.org/2000/svg">
<path d="M10 0C4.47714 0 0 4.47714 0 10C0 15.5229 4.47714 20 10 20C15.5229 20 20 15.5229 20 10C19.9938 4.47975 15.5203 0.00623642 10 0Z" fill="#FFC107"/>
<path d="M16.4888 10.7036C16.4216 10.541 16.263 10.435 16.0871 10.4349H13.0436V3.92015C13.0436 3.68003 12.8489 3.48535 12.6088 3.48535H7.39136C7.15124 3.48535 6.95657 3.68003 6.95657 3.92015V10.4349H3.91311C3.67299 10.4345 3.47799 10.6288 3.47754 10.8689C3.47734 10.9847 3.52331 11.0958 3.60528 11.1775L9.69224 17.2715C9.86201 17.4412 10.1372 17.4412 10.307 17.2715L16.394 11.1775C16.5185 11.0533 16.556 10.8662 16.4888 10.7036Z" fill="#FAFAFA"/>
</svg>
