<svg width="50" height="50" viewBox="0 0 50 50" fill="none" xmlns="http://www.w3.org/2000/svg">
<path d="M46.9551 21.5443H44.4339C44.2903 20.9865 43.9813 20.494 43.5537 20.1413C43.1261 19.7886 42.6031 19.5948 42.0638 19.5894H39.3725V12.5272C39.3755 12.3951 39.3457 12.2645 39.2862 12.1488C39.2267 12.0331 39.1396 11.9365 39.0338 11.8688L20.0483 0.101895C19.9413 0.0351557 19.8197 0 19.696 0C19.5722 0 19.4506 0.0351557 19.3436 0.101895L0.35223 11.8688C0.244772 11.9356 0.155632 12.0317 0.0937946 12.1473C0.0319568 12.2629 -0.000393686 12.3939 3.61583e-06 12.5272V36.0611C6.77519e-06 36.1946 0.0327455 36.3257 0.0949293 36.4412C0.157113 36.5568 0.246551 36.6528 0.354255 36.7195L19.3476 48.4864C19.4553 48.5531 19.5775 48.5883 19.7018 48.5883C19.8294 48.5883 19.9549 48.5533 20.0662 48.4864L30.0607 42.3004V46.7722C30.0597 47.198 30.1374 47.6197 30.2893 48.013C30.4412 48.4064 30.6643 48.7635 30.9456 49.0636C31.227 49.3638 31.5611 49.6011 31.9285 49.7618C32.2959 49.9225 32.6894 50.0034 33.0861 49.9999H46.9551C47.3528 50.0038 47.7474 49.9233 48.1161 49.763C48.4848 49.6027 48.8203 49.3658 49.1033 49.0658C49.3863 48.7658 49.6112 48.4087 49.7651 48.0151C49.919 47.6215 49.9988 47.1991 50 46.7722V24.8224C49.9995 23.955 49.6789 23.1231 49.1082 22.5088C48.5376 21.8944 47.7634 21.5477 46.9551 21.5443V21.5443ZM42.089 21.1099C42.3617 21.1099 42.6233 21.2262 42.8162 21.4331C43.0091 21.6401 43.1174 21.9208 43.1174 22.2135V22.2871C43.1174 22.5798 43.0091 22.8605 42.8162 23.0675C42.6233 23.2744 42.3617 23.3907 42.089 23.3907H37.9718C37.699 23.3907 37.4374 23.2744 37.2445 23.0675C37.0517 22.8605 36.9433 22.5798 36.9433 22.2871V22.2135C36.9433 21.9208 37.0517 21.6401 37.2445 21.4331C37.4374 21.2262 37.699 21.1099 37.9718 21.1099H42.089ZM19.7018 1.63817L27.5939 6.52752L10.0188 17.4158L2.12683 12.5264L19.7018 1.63817ZM19.0283 46.5111L1.41701 35.6221V13.8423L19.0283 24.7314V46.5111ZM19.7018 23.4146L11.4358 18.2936L29.0109 7.40541L37.2773 12.5264L19.7018 23.4146ZM30.0607 24.8224V40.5447L20.4453 46.5111V24.7314L37.9555 13.8423V19.5894H37.9774C37.4381 19.5948 36.9151 19.7885 36.4875 20.1412C36.0599 20.4939 35.7509 20.9865 35.6073 21.5443H33.0861C32.2798 21.5485 31.5081 21.8962 30.9408 22.511C30.3734 23.1257 30.0568 23.9572 30.0607 24.8224V24.8224ZM48.583 46.7722C48.582 46.9995 48.539 47.2242 48.4564 47.4335C48.3737 47.6427 48.2532 47.8323 48.1017 47.9911C47.9503 48.1499 47.7709 48.2749 47.5741 48.3587C47.3772 48.4425 47.1668 48.4835 46.9551 48.4793H33.0861C32.8754 48.4831 32.6661 48.4417 32.4705 48.3575C32.2749 48.2733 32.097 48.148 31.9471 47.989C31.7973 47.83 31.6786 47.6404 31.598 47.4314C31.5174 47.2225 31.4765 46.9984 31.4777 46.7722V24.8224C31.4756 24.5936 31.5155 24.3666 31.5952 24.1544C31.6749 23.9422 31.7929 23.7489 31.9423 23.5857C32.0917 23.4224 32.2696 23.2924 32.4659 23.203C32.6621 23.1137 32.8729 23.0667 33.0861 23.0649H35.6349C35.7869 23.603 36.0973 24.0738 36.5196 24.4067C36.9419 24.7396 37.4534 24.9166 37.9774 24.9112H42.0638C42.5877 24.9166 43.0992 24.7396 43.5216 24.4067C43.9439 24.0738 44.2543 23.603 44.4062 23.0649H46.9551C47.3877 23.0678 47.8017 23.2542 48.1067 23.5835C48.4117 23.9128 48.5829 24.3581 48.583 24.8224V46.7722Z" fill="white"/>
<path d="M33.9017 32.5138H34.6433C34.8312 32.5138 35.0114 32.4337 35.1443 32.2911C35.2772 32.1485 35.3518 31.9552 35.3518 31.7535C35.3518 31.5519 35.2772 31.3585 35.1443 31.2159C35.0114 31.0734 34.8312 30.9933 34.6433 30.9933H34.6154V28.9297H36.5695C36.614 29.0826 36.704 29.2156 36.8256 29.3083C36.9473 29.401 37.094 29.4484 37.2431 29.4431C37.4313 29.4436 37.6119 29.3641 37.7455 29.2219C37.879 29.0797 37.9545 28.8865 37.9555 28.6846V28.173C37.9539 27.9702 37.8778 27.7762 37.7437 27.6332C37.6096 27.4901 37.4283 27.4097 37.2393 27.4092H33.9017C33.8088 27.4097 33.7168 27.4299 33.6312 27.4685C33.5455 27.5072 33.4678 27.5637 33.4024 27.6346C33.3371 27.7055 33.2855 27.7896 33.2504 27.882C33.2154 27.9744 33.1977 28.0733 33.1984 28.173V31.7544C33.1978 31.8539 33.2156 31.9525 33.2507 32.0446C33.2858 32.1367 33.3375 32.2205 33.4029 32.2911C33.4682 32.3616 33.546 32.4176 33.6316 32.4559C33.7172 32.4941 33.809 32.5138 33.9017 32.5138Z" fill="white"/>
<path d="M33.9069 39.4647H37.2469C37.4349 39.4647 37.6151 39.3846 37.7479 39.242C37.8808 39.0995 37.9554 38.9061 37.9554 38.7045V35.1204C37.9554 34.9187 37.8808 34.7254 37.7479 34.5828C37.6151 34.4402 37.4349 34.3601 37.2469 34.3601H33.9069C33.719 34.3601 33.5388 34.4402 33.4059 34.5828C33.273 34.7254 33.1984 34.9187 33.1984 35.1204V38.7045C33.1984 38.9061 33.273 39.0995 33.4059 39.242C33.5388 39.3846 33.719 39.4647 33.9069 39.4647V39.4647ZM34.6154 35.8806H36.5384V37.9442H34.6154V35.8806Z" fill="white"/>
<path d="M34.6435 44.8953H34.6154V42.8317H36.5313C36.535 43.0316 36.6115 43.222 36.7445 43.3621C36.8775 43.5022 37.0564 43.5808 37.2427 43.581C37.4291 43.5812 37.6081 43.503 37.7413 43.3632C37.8746 43.2234 37.9515 43.0331 37.9555 42.8332V42.1006C37.9548 41.8951 37.8797 41.6979 37.7461 41.5506C37.6125 41.4033 37.4308 41.3175 37.2393 41.3112H33.9018C33.7116 41.318 33.5316 41.4045 33.4001 41.552C33.2686 41.6996 33.1962 41.8965 33.1984 42.1006V45.682C33.1983 45.7802 33.2166 45.8774 33.2522 45.9678C33.2877 46.0583 33.3398 46.1401 33.4054 46.2086C33.471 46.277 33.5487 46.3306 33.634 46.3662C33.7193 46.4018 33.8103 46.4186 33.9018 46.4158H34.6435C34.8314 46.4158 35.0116 46.3357 35.1444 46.1931C35.2773 46.0505 35.352 45.8571 35.352 45.6555C35.352 45.4539 35.2773 45.2605 35.1444 45.1179C35.0116 44.9754 34.8314 44.8953 34.6435 44.8953Z" fill="white"/>
<path d="M38.8706 28.3424L36.7957 30.5689L36.1645 29.8915C36.0987 29.8209 36.0206 29.7649 35.9346 29.7267C35.8487 29.6885 35.7565 29.6688 35.6635 29.6688C35.5704 29.6688 35.4783 29.6885 35.3923 29.7267C35.3064 29.7649 35.2283 29.8209 35.1625 29.8915C35.0967 29.9621 35.0445 30.0459 35.0089 30.1381C34.9733 30.2304 34.955 30.3293 34.955 30.4291C34.955 30.5289 34.9733 30.6278 35.0089 30.7201C35.0445 30.8123 35.0967 30.8961 35.1625 30.9667L36.2948 32.1816C36.3606 32.2522 36.4387 32.3082 36.5246 32.3464C36.6106 32.3846 36.7027 32.4043 36.7958 32.4043C36.8888 32.4043 36.981 32.3846 37.0669 32.3464C37.1529 32.3082 37.231 32.2522 37.2968 32.1816L39.8729 29.4173C40.0058 29.2747 40.0804 29.0813 40.0804 28.8797C40.0804 28.678 40.0058 28.4847 39.8729 28.3421C39.74 28.1995 39.5598 28.1194 39.3719 28.1194C39.184 28.1194 39.0038 28.1995 38.8709 28.3421L38.8706 28.3424Z" fill="white"/>
<path d="M38.8706 42.38L36.7957 44.6065L36.1645 43.9291C36.0987 43.8585 36.0206 43.8025 35.9346 43.7643C35.8487 43.7261 35.7565 43.7064 35.6635 43.7064C35.5704 43.7064 35.4783 43.7261 35.3923 43.7643C35.3064 43.8025 35.2283 43.8585 35.1625 43.9291C35.0967 43.9997 35.0445 44.0835 35.0089 44.1757C34.9733 44.268 34.955 44.3669 34.955 44.4667C34.955 44.5665 34.9733 44.6654 35.0089 44.7577C35.0445 44.8499 35.0967 44.9337 35.1625 45.0043L36.2948 46.2192C36.3606 46.2898 36.4387 46.3458 36.5246 46.384C36.6106 46.4222 36.7027 46.4419 36.7958 46.4419C36.8888 46.4419 36.981 46.4222 37.0669 46.384C37.1529 46.3458 37.231 46.2898 37.2968 46.2192L39.8729 43.4549C40.0058 43.3123 40.0804 43.1189 40.0804 42.9173C40.0804 42.7156 40.0058 42.5223 39.8729 42.3797C39.74 42.2371 39.5598 42.157 39.3719 42.157C39.184 42.157 39.0038 42.2371 38.8709 42.3797L38.8706 42.38Z" fill="white"/>
<path d="M46.1393 29.2556H41.6893C41.5014 29.2556 41.3212 29.3357 41.1884 29.4783C41.0555 29.6209 40.9808 29.8142 40.9808 30.0159C40.9808 30.2175 41.0555 30.4109 41.1884 30.5535C41.3212 30.696 41.5014 30.7761 41.6893 30.7761H46.1393C46.3272 30.7761 46.5075 30.696 46.6403 30.5535C46.7732 30.4109 46.8478 30.2175 46.8478 30.0159C46.8478 29.8142 46.7732 29.6209 46.6403 29.4783C46.5075 29.3357 46.3272 29.2556 46.1393 29.2556V29.2556Z" fill="white"/>
<path d="M46.1393 36.2065H41.6893C41.5014 36.2065 41.3212 36.2866 41.1884 36.4292C41.0555 36.5718 40.9808 36.7652 40.9808 36.9668C40.9808 37.1684 41.0555 37.3618 41.1884 37.5044C41.3212 37.647 41.5014 37.7271 41.6893 37.7271H46.1393C46.3272 37.7271 46.5075 37.647 46.6403 37.5044C46.7732 37.3618 46.8478 37.1684 46.8478 36.9668C46.8478 36.7652 46.7732 36.5718 46.6403 36.4292C46.5075 36.2866 46.3272 36.2065 46.1393 36.2065V36.2065Z" fill="white"/>
<path d="M46.1393 43.1575H41.6893C41.5014 43.1575 41.3212 43.2376 41.1884 43.3801C41.0555 43.5227 40.9808 43.7161 40.9808 43.9177C40.9808 44.1194 41.0555 44.3127 41.1884 44.4553C41.3212 44.5979 41.5014 44.678 41.6893 44.678H46.1393C46.3272 44.678 46.5075 44.5979 46.6403 44.4553C46.7732 44.3127 46.8478 44.1194 46.8478 43.9177C46.8478 43.7161 46.7732 43.5227 46.6403 43.3801C46.5075 43.2376 46.3272 43.1575 46.1393 43.1575V43.1575Z" fill="white"/>
</svg>
