<svg width="50" height="50" viewBox="0 0 50 50" fill="none" xmlns="http://www.w3.org/2000/svg">
<path d="M43.3625 39.7385C43.1809 39.5568 42.929 39.4524 42.6723 39.4524C42.4155 39.4524 42.1636 39.5568 41.982 39.7385C41.8005 39.9201 41.696 40.1722 41.696 40.429C41.696 40.6858 41.8005 40.9379 41.982 41.1194C42.1636 41.301 42.4155 41.4056 42.6723 41.4056C42.929 41.4056 43.1809 41.3011 43.3625 41.1194C43.5451 40.9378 43.6485 40.6858 43.6485 40.429C43.6485 40.1722 43.5451 39.9201 43.3625 39.7385Z" fill="white"/>
<path d="M18.8975 42.5775C16.8519 42.5775 15.1876 44.2423 15.1876 46.2887C15.1876 48.3351 16.8518 50 18.8975 50C20.9431 50 22.6075 48.3352 22.6075 46.2887C22.6075 44.2423 20.9431 42.5775 18.8975 42.5775ZM18.8975 48.0467C17.9286 48.0467 17.1402 47.258 17.1402 46.2887C17.1402 45.3195 17.9286 44.5308 18.8975 44.5308C19.8664 44.5308 20.6548 45.3195 20.6548 46.2887C20.6548 47.258 19.8664 48.0467 18.8975 48.0467Z" fill="white"/>
<path d="M36.8049 42.5775C34.7593 42.5775 33.095 44.2423 33.095 46.2887C33.095 48.3351 34.7592 50 36.8049 50C38.8505 50 40.5149 48.3352 40.5149 46.2887C40.5149 44.2423 38.8506 42.5775 36.8049 42.5775ZM36.8049 48.0467C35.836 48.0467 35.0476 47.258 35.0476 46.2887C35.0476 45.3195 35.836 44.5308 36.8049 44.5308C37.7739 44.5308 38.5622 45.3195 38.5622 46.2887C38.5622 47.258 37.7741 48.0467 36.8049 48.0467Z" fill="white"/>
<path d="M45.6467 25.8295C45.1176 25.7274 44.6053 26.074 44.5033 26.6037L43.0844 33.9726C42.996 34.4314 42.5928 34.7645 42.1257 34.7645H13.9523L10.1287 18.1292H20.1683C20.7076 18.1292 21.1446 17.6919 21.1446 17.1526C21.1446 16.6132 20.7075 16.176 20.1683 16.176H9.67966L8.63836 11.6455C8.33084 10.307 7.15701 9.37207 5.78397 9.37207H0.976267C0.437108 9.37197 0 9.80923 0 10.3487C0 10.8881 0.437108 11.3253 0.976267 11.3253H5.78407C6.24178 11.3253 6.63299 11.6368 6.73553 12.0831L13.3011 40.6478C13.4031 41.0913 13.7977 41.4056 14.2526 41.4056H39.1547C39.6939 41.4056 40.131 40.9682 40.131 40.429C40.131 39.8896 39.6939 39.4524 39.1547 39.4524H15.0298L14.4013 36.7179H42.1257C43.527 36.7179 44.7367 35.7188 45.0017 34.3422L46.4206 26.9734C46.5226 26.4435 46.1762 25.9315 45.6467 25.8295Z" fill="white"/>
<path d="M49.6223 13.1902C50.2424 12.1823 50.0869 10.898 49.2439 10.0676L48.2689 9.1068C48.1495 8.98909 48.0878 8.82575 48.0997 8.65841L48.1973 7.28606C48.2818 6.09992 47.546 5.03187 46.4078 4.68869L45.1167 4.2993C44.9551 4.25055 44.8241 4.13381 44.7569 3.97907L44.2165 2.73187C43.7481 1.65103 42.5694 1.03138 41.4139 1.25802L40.1039 1.51524C39.9373 1.54777 39.7664 1.50547 39.6344 1.39889L38.5916 0.556611C37.6727 -0.185439 36.3387 -0.185635 35.4198 0.556611L34.3769 1.39889C34.2449 1.50547 34.074 1.54797 33.9074 1.51514L32.5972 1.25793C31.4417 1.03099 30.2631 1.65083 29.7948 2.73148L29.2542 3.97897C29.1871 4.13381 29.056 4.25045 28.8945 4.2992L27.6036 4.68849C26.4655 5.03178 25.7297 6.09982 25.8142 7.28587L25.9118 8.65831C25.9237 8.82556 25.862 8.98889 25.7427 9.10661L24.7677 10.0674C23.9247 10.8979 23.7691 12.1821 24.3892 13.19L25.1101 14.362C25.1978 14.5046 25.2187 14.6778 25.1676 14.8372L24.7457 16.1494C24.3829 17.2781 24.8413 18.489 25.8602 19.0941L27.0289 19.7882C27.1734 19.874 27.2724 20.0183 27.3007 20.184L27.5306 21.5335C27.7309 22.7096 28.7029 23.5722 29.8939 23.6314L31.2322 23.6979C31.4013 23.7063 31.5569 23.7885 31.6593 23.9231L32.4754 24.9973C32.9632 25.6391 33.7215 25.9917 34.4939 25.9917C34.8526 25.9917 35.2144 25.9157 35.5535 25.7573L36.7635 25.1922C36.9173 25.1203 37.0936 25.1203 37.2475 25.1922L38.4573 25.7573C39.5268 26.2568 40.8214 25.9372 41.5355 24.997L42.3512 23.9232C42.4537 23.7884 42.6093 23.7063 42.7784 23.6979L44.117 23.6313C45.3081 23.5721 46.2799 22.7095 46.4803 21.5334L46.7102 20.1839C46.7384 20.0182 46.8376 19.874 46.982 19.7881L48.1506 19.0941C49.1696 18.489 49.628 17.2781 49.2653 16.1494L48.8434 14.8372C48.7921 14.6778 48.813 14.5046 48.9007 14.3621L49.6223 13.1902ZM47.9593 12.1665L47.2383 13.3386C46.8514 13.9677 46.759 14.732 46.9851 15.4351L47.407 16.7474C47.4892 17.0032 47.3853 17.2776 47.1545 17.4146L45.986 18.1086C45.3481 18.4875 44.9108 19.1242 44.786 19.8558L44.5561 21.2052C44.5107 21.4716 44.2906 21.6671 44.0206 21.6805L42.6819 21.7472C41.936 21.7843 41.2491 22.1466 40.7971 22.7415L39.9814 23.8153C39.8195 24.0281 39.5262 24.1006 39.2839 23.9875L38.0741 23.4223C37.3952 23.1052 36.6164 23.1052 35.9376 23.4223L34.7277 23.9875C34.4854 24.1008 34.1921 24.0282 34.0303 23.8153L33.2141 22.7411C32.7623 22.1464 32.0754 21.7841 31.3295 21.747L29.9912 21.6804C29.7214 21.6671 29.5011 21.4716 29.4556 21.2051L29.2258 19.8556C29.1011 19.1241 28.6638 18.4873 28.0259 18.1085L26.8572 17.4145C26.6264 17.2774 26.5225 17.0031 26.6048 16.7473L27.0266 15.435C27.2526 14.7318 27.1604 13.9676 26.7734 13.3384L26.0524 12.1663C25.9119 11.938 25.9472 11.647 26.1382 11.4589L27.1133 10.498C27.6402 9.97869 27.9123 9.25754 27.8598 8.51949L27.7621 7.14705C27.743 6.8784 27.9098 6.63633 28.1675 6.55857L29.4584 6.16928C30.1711 5.95436 30.7497 5.43914 31.0459 4.756L31.5865 3.5085C31.678 3.29759 31.8888 3.16405 32.1131 3.16405C32.1491 3.16405 32.1853 3.16756 32.2216 3.1746L33.5316 3.43172C34.2661 3.5762 35.0213 3.38893 35.6037 2.91855L36.6466 2.07627C36.8549 1.90805 37.1571 1.90815 37.3652 2.07627L38.4081 2.91855C38.9904 3.38883 39.7454 3.57581 40.4801 3.43181L41.7901 3.1747C42.0521 3.12292 42.319 3.26379 42.425 3.5086L42.9654 4.7558C43.2615 5.43924 43.8402 5.95446 44.5531 6.16937L45.8442 6.55876C46.102 6.63652 46.2688 6.8785 46.2497 7.14725L46.152 8.51959C46.0995 9.25764 46.3715 9.97878 46.8985 10.4982L47.8735 11.459C48.0645 11.6471 48.0998 11.938 47.9593 12.1665Z" fill="white"/>
<path d="M39.2643 8.57121C38.7946 8.30598 38.1992 8.47176 37.9342 8.94155L33.4064 16.9648C33.1414 17.4346 33.307 18.0302 33.7766 18.2953C33.9284 18.381 34.093 18.4217 34.2557 18.4217C34.5964 18.4217 34.9273 18.243 35.1068 17.925L39.6346 9.90174C39.8995 9.43195 39.7337 8.83634 39.2643 8.57121Z" fill="white"/>
<path d="M39.9483 13.7017C38.5482 13.7017 37.4092 14.8411 37.4092 16.2417C37.4092 17.6423 38.5482 18.7817 39.9483 18.7817C41.3484 18.7817 42.4875 17.6423 42.4875 16.2417C42.4875 14.8411 41.3483 13.7017 39.9483 13.7017ZM39.9483 16.8285C39.6249 16.8285 39.3618 16.5653 39.3618 16.2418C39.3618 15.9182 39.6249 15.6551 39.9483 15.6551C40.2718 15.6551 40.5348 15.9182 40.5348 16.2418C40.5348 16.5653 40.2718 16.8285 39.9483 16.8285Z" fill="white"/>
<path d="M34.0635 7.20923C32.6634 7.20923 31.5244 8.34868 31.5244 9.74926C31.5244 11.1498 32.6634 12.2893 34.0635 12.2893C35.4636 12.2893 36.6027 11.1498 36.6027 9.74926C36.6027 8.34868 35.4636 7.20923 34.0635 7.20923ZM34.0634 10.3361C33.74 10.3361 33.4769 10.0729 33.4769 9.74936C33.4769 9.42581 33.74 9.16264 34.0634 9.16264C34.3868 9.16264 34.6499 9.42581 34.6499 9.74936C34.6499 10.0728 34.3868 10.3361 34.0634 10.3361Z" fill="white"/>
</svg>
