<svg width="50" height="50" viewBox="0 0 50 50" fill="none" xmlns="http://www.w3.org/2000/svg">
<path d="M7.29713 31.1194H2.24495C1.00708 31.1194 0 32.199 0 33.5263V47.5934C0 48.9204 1.00708 50 2.24495 50H7.29713C8.53539 50 9.54247 48.9204 9.54247 47.5934V33.5263C9.54247 32.199 8.53539 31.1194 7.29713 31.1194ZM8.07762 47.5934C8.07762 48.0543 7.72743 48.4297 7.29713 48.4297H2.24495C1.81503 48.4297 1.46484 48.0543 1.46484 47.5934V33.5263C1.46484 33.0651 1.81503 32.6897 2.24495 32.6897H7.29713C7.72743 32.6897 8.07762 33.0651 8.07762 33.5263V47.5934Z" fill="white"/>
<path d="M20.7832 20.0939H15.731C14.4932 20.0939 13.4861 21.1734 13.4861 22.5004V26.9647C13.4861 27.3981 13.8138 27.7498 14.2185 27.7498C14.6229 27.7498 14.9509 27.3981 14.9509 26.9647V22.5004C14.9509 22.0396 15.3007 21.6642 15.731 21.6642H20.7832C21.2135 21.6642 21.5633 22.0396 21.5633 22.5004V47.5934C21.5633 48.0543 21.2135 48.4297 20.7832 48.4297H15.731C15.3007 48.4297 14.9509 48.0543 14.9509 47.5934V30.1052C14.9509 29.6718 14.6229 29.3201 14.2185 29.3201C13.8138 29.3201 13.4861 29.6718 13.4861 30.1052V47.5934C13.4861 48.9204 14.4932 50 15.731 50H20.7832C22.0211 50 23.0282 48.9204 23.0282 47.5934V22.5008C23.0282 21.1734 22.0211 20.0939 20.7832 20.0939Z" fill="white"/>
<path d="M34.2688 26.7095H29.2166C27.9788 26.7095 26.9717 27.789 26.9717 29.116V47.5934C26.9717 48.9204 27.9788 50 29.2166 50H34.2688C35.5071 50 36.5141 48.9204 36.5141 47.5934V29.116C36.5141 27.789 35.5071 26.7095 34.2688 26.7095V26.7095ZM35.0493 47.5934C35.0493 48.0543 34.6991 48.4297 34.2688 48.4297H29.2166C28.7863 48.4297 28.4365 48.0543 28.4365 47.5934V29.116C28.4365 28.6547 28.7863 28.2798 29.2166 28.2798H34.2688C34.6991 28.2798 35.0493 28.6547 35.0493 29.116V47.5934Z" fill="white"/>
<path d="M47.755 14.5811H42.7029C41.465 14.5811 40.4575 15.6606 40.4575 16.9876V39.4222C40.4575 39.8556 40.7856 40.2073 41.1899 40.2073C41.5947 40.2073 41.9224 39.8556 41.9224 39.4222V16.9876C41.9224 16.5263 42.2726 16.1513 42.7029 16.1513H47.755C48.185 16.1513 48.5351 16.5263 48.5351 16.9876V47.5934C48.5351 48.0542 48.185 48.4296 47.755 48.4296H42.7029C42.2726 48.4296 41.9224 48.0542 41.9224 47.5934V42.5628C41.9224 42.1293 41.5947 41.7776 41.1899 41.7776C40.7856 41.7776 40.4575 42.1293 40.4575 42.5628V47.5934C40.4575 48.9203 41.465 49.9999 42.7029 49.9999H47.755C48.9929 49.9999 50 48.9203 50 47.5934V16.9876C50 15.6606 48.9929 14.5811 47.755 14.5811V14.5811Z" fill="white"/>
<path d="M4.77104 16.5383C2.25487 16.5383 0.20752 18.733 0.20752 21.4303C0.20752 24.128 2.25487 26.3227 4.77104 26.3227C7.2876 26.3227 9.33495 24.128 9.33495 21.4303C9.33495 21.216 9.32045 21.0058 9.29565 20.7989L16.4913 14.9156C17.0345 15.161 17.6315 15.2972 18.2571 15.2972C19.2436 15.2972 20.1572 14.9586 20.9045 14.3861L27.1996 17.4739C27.4139 19.9594 29.3694 21.9124 31.7429 21.9124C34.2594 21.9124 36.3068 19.7177 36.3068 17.0204C36.3068 16.728 36.2812 16.4422 36.2354 16.1641L43.66 9.48631C44.1494 9.67932 44.6781 9.78441 45.229 9.78441C47.7451 9.78441 49.7925 7.5897 49.7925 4.892C49.7925 2.19472 47.7451 0 45.229 0C42.7124 0 40.6651 2.19472 40.6651 4.892C40.6651 5.18439 40.6906 5.47023 40.7364 5.7483L33.3115 12.4261C32.8224 12.2335 32.2937 12.128 31.7429 12.128C30.7564 12.128 29.8428 12.4666 29.0955 13.0395L22.8004 9.95126C22.5861 7.46579 20.631 5.51275 18.2571 5.51275C15.7406 5.51275 13.6936 7.70747 13.6936 10.4048C13.6936 10.619 13.7077 10.8296 13.7329 11.0366L6.53687 16.9194C5.99327 16.674 5.39703 16.5383 4.77104 16.5383V16.5383ZM45.229 1.57028C46.9376 1.57028 48.3276 3.06042 48.3276 4.892C48.3276 6.72359 46.9376 8.21413 45.229 8.21413C43.5459 8.21413 42.1299 6.69619 42.1299 4.892C42.1299 3.06042 43.52 1.57028 45.229 1.57028ZM41.2678 7.32022C41.28 7.34312 41.2933 7.3652 41.3059 7.38769C41.5707 7.86573 41.9113 8.2951 42.3096 8.65128L35.704 14.5918C35.6918 14.5689 35.4916 14.2278 35.3935 14.0876C35.1807 13.7833 34.9354 13.5052 34.6622 13.2607L41.2678 7.32022ZM28.6446 16.9713C28.6697 15.1908 30.0724 13.6983 31.7429 13.6983C33.4084 13.6983 34.8415 15.2248 34.8415 17.0204C34.8415 18.852 33.4515 20.3421 31.7429 20.3421C30.0343 20.3421 28.6442 18.852 28.6442 17.0204C28.6442 17.004 28.6442 16.9877 28.6446 16.9713V16.9713ZM22.0203 13.1683C22.3202 12.6964 22.5464 12.1717 22.6784 11.6185L27.9976 14.2274C27.7267 14.6457 27.515 15.1103 27.3766 15.5977C27.3567 15.6668 27.3384 15.7364 27.3216 15.8063L22.0024 13.1973C22.0085 13.1879 22.0142 13.1781 22.0203 13.1683ZM18.2571 7.08304C19.9657 7.08304 21.3558 8.57317 21.3558 10.4048C21.3558 12.1942 19.9238 13.7269 18.2571 13.7269C16.5897 13.7269 15.1581 12.2024 15.1581 10.4048C15.1581 8.57317 16.5482 7.08304 18.2571 7.08304ZM14.1949 12.6334C14.2036 12.6514 14.2136 12.6694 14.2223 12.6874C14.4672 13.1838 14.7919 13.6353 15.1783 14.0144L8.83331 19.202C8.71582 18.9567 8.57773 18.7211 8.42361 18.5007C8.25272 18.2562 8.06122 18.028 7.84988 17.8207L14.1949 12.6334ZM6.61774 18.7915C7.36961 19.4048 7.8701 20.3707 7.8701 21.4303C7.8701 23.2623 6.48003 24.7524 4.77104 24.7524C3.06244 24.7524 1.67236 23.2623 1.67236 21.4303C1.67236 19.5987 3.06244 18.1085 4.77104 18.1085C5.45235 18.1085 6.09589 18.3649 6.61774 18.7915Z" fill="white"/>
</svg>
